<?xml version="1.0" standalone="no"?>
<!DOCTYPE svg PUBLIC "-//W3C//DTD SVG 20010904//EN"
 "http://www.w3.org/TR/2001/REC-SVG-20010904/DTD/svg10.dtd">
<svg version="1.0" xmlns="http://www.w3.org/2000/svg"
 width="820.000000pt" height="820.000000pt" viewBox="0 0 820.000000 820.000000"
 preserveAspectRatio="xMidYMid meet">
<metadata>
Created by potrace 1.14, written by Peter Selinger 2001-2017
</metadata>
<g transform="translate(0.000000,820.000000) scale(0.100000,-0.100000)"
fill="#000000" stroke="none">
<path d="M0 4100 l0 -4100 4100 0 4100 0 0 4100 0 4100 -4100 0 -4100 0 0
-4100z m4145 3360 c-22 -5 -44 -4 -49 1 -6 5 10 9 40 8 l49 -1 -40 -8z m385
-26 c0 -2 -7 -4 -15 -4 -8 0 -15 4 -15 10 0 5 7 7 15 4 8 -4 15 -8 15 -10z
m63 -1 c-7 -2 -19 -2 -25 0 -7 3 -2 5 12 5 14 0 19 -2 13 -5z m-1233 -88 c0
-17 -26 -20 -35 -4 -5 7 -12 6 -23 -4 -11 -9 -27 -11 -47 -7 -33 8 -22 16 30
23 63 8 75 7 75 -8z m-140 -24 c0 -18 -17 -20 -36 -6 -18 14 -18 14 9 15 15 0
27 -4 27 -9z m-430 -211 c0 -5 12 -16 28 -24 l27 -15 -42 -1 c-30 0 -43 -4
-43 -14 0 -9 -7 -12 -19 -9 -14 4 -18 -1 -18 -20 0 -24 2 -25 66 -26 79 -1 82
-2 148 -26 34 -12 49 -23 46 -32 -3 -8 2 -13 16 -13 12 0 21 -4 21 -9 0 -5
-22 -8 -50 -6 -27 2 -50 1 -50 -3 0 -9 73 -32 100 -32 11 0 20 -4 20 -10 0 -5
14 -10 30 -10 17 0 30 -2 30 -4 0 -2 3 -11 6 -20 5 -13 -1 -16 -31 -16 -20 0
-43 6 -50 14 -16 15 -112 32 -123 21 -4 -3 4 -16 18 -27 24 -19 23 -19 -11 1
-20 12 -46 21 -58 21 -12 0 -21 6 -21 15 0 8 -7 15 -15 15 -8 0 -15 4 -15 10
0 5 17 9 38 8 37 -1 95 20 62 23 -21 2 -70 -1 -102 -7 -20 -3 -28 0 -28 11 0
8 -4 15 -10 15 -5 0 -9 -5 -7 -11 1 -6 -8 -15 -20 -20 -13 -5 -23 -5 -23 0 0
5 6 11 13 14 9 3 9 8 1 17 -9 9 -20 4 -47 -19 -39 -35 -81 -42 -75 -13 2 9 11
16 21 16 18 -2 23 11 7 21 -14 9 -50 -13 -50 -30 0 -8 -9 -19 -20 -25 -16 -8
-20 -8 -20 4 0 8 5 18 10 21 6 4 10 12 9 18 -4 23 13 67 30 78 14 8 13 9 -4 5
-11 -2 -38 -7 -60 -11 -37 -6 -39 -5 -24 10 10 11 40 19 80 22 37 3 84 16 111
29 26 13 54 24 63 24 8 0 15 7 15 15 0 8 5 15 10 15 6 0 10 -4 10 -10z m-335
-89 c-3 -5 -19 -12 -35 -16 -36 -8 -82 -52 -100 -94 -7 -17 -16 -31 -21 -31
-13 0 -11 17 7 51 21 41 9 50 -13 10 -10 -17 -21 -31 -25 -31 -9 0 -43 -62
-40 -72 1 -5 -3 -7 -8 -5 -11 2 -49 -94 -50 -124 0 -9 -7 -16 -15 -17 -8 -1
-22 -3 -30 -4 -18 -2 -18 -3 -3 -28 7 -10 9 -23 5 -27 -5 -4 -12 -1 -17 7 -7
11 -12 11 -23 2 -16 -14 -27 -6 -27 20 0 18 -10 22 -39 18 -13 -1 -13 1 -1 15
10 13 15 13 21 3 5 -7 9 -9 9 -5 0 4 9 3 20 -3 25 -13 27 1 4 36 -19 28 -9 48
10 21 16 -21 26 -22 26 -2 0 8 4 15 9 15 5 0 7 9 4 20 -4 15 0 20 13 20 14 0
16 2 6 9 -8 5 -14 25 -15 45 0 19 -3 32 -6 28 -4 -5 -15 -12 -26 -17 -18 -7
-18 -9 -2 -12 9 -3 17 -12 17 -21 0 -13 -2 -14 -9 -3 -13 20 -24 -4 -17 -35
14 -53 -24 0 -47 66 -4 11 -7 9 -13 -8 -6 -21 -7 -21 -20 -5 -12 17 -14 17
-28 -2 -15 -20 -15 -20 -9 2 6 25 27 46 51 49 8 2 26 16 38 32 29 37 68 63
102 67 110 15 165 25 170 29 9 10 134 7 127 -3z m78 -38 c4 -3 0 -17 -9 -31
-8 -13 -13 -26 -10 -30 9 -9 -25 -42 -44 -42 -10 0 -23 -13 -30 -30 -7 -16
-16 -30 -21 -30 -14 0 -11 16 12 54 11 20 22 42 23 50 2 16 52 66 65 66 4 0
11 -3 14 -7z m-103 -38 c-10 -12 -10 -15 1 -16 11 0 10 -2 -1 -6 -8 -3 -24
-13 -34 -22 -18 -15 -18 -15 -6 9 16 32 42 62 48 55 3 -2 -1 -11 -8 -20z m325
-54 c7 -12 -12 -24 -25 -16 -11 7 -4 25 10 25 5 0 11 -4 15 -9z m-915 -65 c0
-57 47 -143 92 -169 22 -13 28 -13 28 -2 0 7 -4 15 -8 17 -5 2 -12 17 -16 33
-6 27 -5 28 7 13 8 -10 16 -15 20 -12 8 8 19 -34 12 -46 -7 -11 30 -50 47 -50
4 0 7 -3 7 -7 -4 -25 3 -43 17 -43 11 0 14 -8 12 -27 -4 -35 -21 -39 -38 -9
-16 31 -32 24 -24 -11 7 -25 5 -26 -26 -20 -26 6 -31 4 -26 -8 3 -9 0 -15 -9
-15 -8 0 -15 6 -15 13 0 7 -9 19 -20 27 -11 8 -20 20 -20 27 0 7 -4 13 -9 13
-4 0 -6 10 -4 23 3 15 -4 34 -21 54 -14 17 -26 35 -26 41 0 6 -5 12 -11 14
-19 6 -22 123 -4 158 19 37 35 31 35 -14z m452 22 c-7 -7 -12 -8 -12 -2 0 14
12 26 19 19 2 -3 -1 -11 -7 -17z m-333 -67 c6 -37 5 -51 -3 -48 -6 2 -12 28
-14 58 -4 66 6 60 17 -10z m41 39 c0 -5 -5 -10 -11 -10 -5 0 -7 5 -4 10 3 6 8
10 11 10 2 0 4 -4 4 -10z m7 -62 c-3 -8 -6 -5 -6 6 -1 11 2 17 5 13 3 -3 4
-12 1 -19z m827 7 c-7 -16 -30 -20 -38 -6 -7 11 4 21 25 21 12 0 16 -5 13 -15z
m138 -11 c24 -13 28 -18 17 -25 -10 -7 -6 -8 12 -4 16 4 30 1 38 -8 30 -37
-55 -26 -124 14 -19 12 -42 18 -50 15 -9 -3 -15 0 -15 8 0 8 6 16 13 19 20 7
77 -2 109 -19z m-1240 -153 c-7 -4 -10 -16 -6 -27 5 -16 4 -16 -5 -4 -19 26
-13 -27 6 -57 14 -21 14 -25 3 -21 -26 8 -35 53 -20 98 10 29 16 38 24 30 8
-8 7 -13 -2 -19z m91 5 c6 -15 -1 -26 -15 -26 -4 0 -8 9 -8 20 0 23 15 27 23
6z m-37 -36 c17 0 45 -65 37 -87 -4 -10 -2 -14 4 -10 11 7 49 -33 45 -47 -2
-5 4 -6 13 -2 10 3 13 2 10 -4 -4 -6 7 -15 24 -21 17 -6 31 -15 31 -20 0 -13
-44 -11 -59 4 -10 10 -11 9 -6 -5 4 -10 4 -18 1 -18 -3 0 -15 8 -26 18 -11 9
-24 16 -28 16 -12 -2 -34 35 -27 46 4 6 -3 25 -14 44 -11 18 -18 35 -15 39 3
3 -2 19 -11 36 -9 18 -12 37 -8 44 5 8 9 5 11 -10 2 -13 10 -23 18 -23z m-76
-183 c0 -5 -4 -5 -10 -2 -5 3 -10 14 -10 23 0 15 2 15 10 2 5 -8 10 -19 10
-23z m1300 -33 c8 -8 29 -26 45 -40 18 -17 23 -25 12 -21 -10 4 -23 7 -28 7
-6 0 -7 5 -4 10 3 6 0 10 -8 10 -14 0 -44 14 -75 33 -7 5 -10 13 -6 18 7 12
43 2 64 -17z m-607 -1 c-11 -32 -33 -59 -33 -42 0 14 27 59 35 59 3 0 2 -8 -2
-17z m-348 -3 c4 -6 -6 -10 -22 -10 -22 0 -25 2 -13 10 19 12 27 12 35 0z
m-242 -70 c5 0 -2 14 -14 32 -13 17 -16 28 -8 23 7 -5 31 -19 51 -32 43 -26
118 -42 118 -24 0 14 56 15 65 1 10 -16 26 -12 23 6 -2 10 3 19 11 22 10 3 12
0 8 -11 -5 -14 0 -16 36 -10 94 14 116 3 70 -33 -20 -15 -30 -30 -26 -39 3 -8
0 -15 -6 -15 -6 0 -11 5 -11 11 0 10 -34 7 -85 -9 -18 -5 -18 -6 5 -13 23 -7
23 -7 -7 -8 -18 -1 -33 4 -33 9 0 6 -15 9 -32 9 l-33 -1 30 -8 30 -8 -36 -1
c-27 -1 -38 4 -41 17 -3 10 -26 24 -54 34 -48 17 -124 79 -124 102 0 6 13 -4
28 -22 15 -18 31 -32 35 -32z m162 30 c7 -12 -22 -12 -50 0 -17 7 -15 9 12 9
17 1 35 -3 38 -9z m145 6 c0 -3 -4 -8 -10 -11 -5 -3 -10 -1 -10 4 0 6 5 11 10
11 6 0 10 -2 10 -4z m827 -28 c-3 -7 -5 -2 -5 12 0 14 2 19 5 13 2 -7 2 -19 0
-25z m-7 -33 c5 15 8 13 13 -15 4 -19 20 -61 36 -95 15 -33 32 -78 37 -99 8
-33 13 -39 38 -42 27 -3 71 -32 62 -42 -3 -2 8 -15 24 -28 16 -14 26 -31 24
-42 -5 -21 9 -39 59 -76 48 -37 75 -91 59 -117 -10 -16 -9 -19 6 -19 26 0 34
-11 21 -27 -9 -10 -8 -13 5 -13 9 0 16 -8 16 -20 0 -11 -5 -20 -10 -20 -6 0
-9 -12 -7 -27 3 -22 10 -29 33 -31 29 -4 28 -4 -11 -17 -60 -20 -279 -51 -425
-61 -47 -3 -109 -10 -139 -15 -30 -5 -86 -9 -124 -9 -61 0 -73 3 -106 29 -32
26 -43 29 -80 24 -23 -3 -45 -12 -48 -19 -3 -8 -13 -14 -24 -14 -10 0 -24 -8
-31 -18 -7 -10 -21 -21 -32 -25 -15 -6 -16 -10 -5 -23 10 -13 8 -19 -14 -41
l-26 -27 -11 30 c-6 16 -29 45 -51 64 -38 33 -40 38 -40 91 0 69 7 115 33 199
11 36 35 119 54 185 20 66 51 150 70 188 33 64 113 157 136 157 6 0 19 6 27
14 20 17 50 22 75 11 11 -5 26 -4 35 2 11 7 21 7 34 -1 14 -8 20 -8 27 4 7 12
13 12 33 1 17 -9 34 -10 58 -3 19 5 43 5 54 1 33 -13 55 -10 55 7 0 13 7 10
27 -12 24 -26 27 -27 33 -9z m-921 -98 c24 -10 28 -16 19 -25 -19 -19 -50 -14
-83 13 l-30 25 31 0 c18 0 46 -6 63 -13z m471 -802 c0 -14 3 -25 6 -25 10 0
34 28 34 39 0 11 41 6 64 -7 13 -7 46 -84 45 -107 0 -18 -1 -17 -14 5 -8 14
-14 33 -15 43 0 9 -4 17 -9 17 -16 0 -23 -38 -12 -59 14 -25 14 -41 1 -41 -5
0 -16 21 -23 47 -22 74 -37 65 -21 -12 8 -36 13 -69 11 -73 -2 -7 28 -116 45
-163 7 -20 16 -26 39 -27 21 0 29 4 29 16 1 34 29 -33 30 -69 0 -30 -7 -43
-35 -68 -50 -44 -90 -62 -150 -68 -53 -6 -53 -5 -77 33 -32 50 -71 154 -58
154 6 0 10 -4 10 -10 0 -13 84 -13 108 -1 9 5 32 16 50 23 30 12 33 16 27 43
-3 17 -10 32 -15 33 -6 2 -10 15 -10 29 0 29 -28 93 -41 93 -5 0 -6 -6 -3 -14
4 -9 -7 -15 -34 -19 -22 -4 -48 -17 -61 -31 -33 -36 -56 -19 -58 43 -1 26 -6
59 -12 72 -14 39 -2 79 28 91 110 45 121 46 121 13z m415 -5 c-3 -5 -13 -10
-21 -10 -8 0 -14 5 -14 10 0 6 9 10 21 10 11 0 17 -4 14 -10z m247 -110 c2 -6
49 -13 106 -17 77 -5 102 -9 98 -19 -6 -15 18 -37 28 -27 4 4 11 1 16 -7 7
-11 10 -12 10 -2 0 7 4 11 9 8 5 -3 7 -15 4 -26 -3 -11 -1 -26 4 -33 12 -15
17 -137 6 -137 -4 0 -9 -28 -9 -63 -2 -68 -24 -134 -48 -143 -8 -3 -13 -11
-10 -19 3 -7 -5 -15 -21 -19 -17 -4 -25 -12 -22 -20 24 -62 30 -98 19 -121
-13 -29 -32 -33 -32 -7 -1 16 -1 16 -14 0 -7 -10 -19 -18 -27 -18 -8 0 -3 -10
14 -25 28 -26 29 -31 31 -100 1 -22 5 -46 9 -52 5 -7 5 -17 2 -23 -3 -5 -1
-10 5 -10 6 0 9 -4 6 -9 -3 -5 1 -14 9 -21 7 -6 11 -18 8 -26 -3 -8 0 -14 6
-14 6 0 11 7 11 15 0 8 5 15 11 15 6 0 9 -9 6 -20 -5 -21 16 -45 33 -35 5 3
10 13 10 21 0 8 5 14 11 14 6 0 9 -6 6 -13 -4 -10 2 -13 19 -9 19 3 23 1 18
-12 -5 -12 0 -16 20 -16 31 0 36 -29 6 -37 -16 -4 -19 -11 -14 -32 9 -38 11
-31 -26 -116 -29 -69 -40 -110 -40 -153 0 -36 -4 -44 -25 -52 -14 -5 -25 -16
-25 -25 0 -8 -6 -15 -13 -15 -7 0 -13 -10 -14 -22 -3 -31 -27 -51 -65 -54 -18
-1 -34 -7 -36 -13 -2 -6 -10 -11 -17 -11 -8 0 -23 -13 -35 -30 -15 -22 -30
-30 -51 -30 -16 0 -29 -5 -29 -12 0 -9 -3 -8 -10 2 -8 12 -11 12 -27 -2 -10
-8 -28 -19 -41 -23 -13 -4 -28 -18 -34 -31 -11 -23 -84 -64 -114 -64 -8 0 -14
-4 -14 -9 0 -5 -9 -7 -20 -4 -12 3 -22 -1 -26 -11 -3 -9 -17 -16 -29 -16 -13
0 -27 -5 -31 -11 -4 -7 -22 -9 -48 -5 -22 4 -51 8 -63 9 -13 2 -26 7 -30 10
-10 11 -61 8 -65 -3 -2 -6 -17 0 -34 12 -44 31 -64 88 -65 188 0 47 -4 109 -8
138 -7 51 -6 54 18 66 14 7 31 11 37 9 14 -5 104 84 104 103 0 16 -20 18 -70
5 -101 -26 -112 -21 -46 21 17 11 23 18 14 14 -10 -3 -18 -1 -18 4 0 17 -20
11 -65 -20 -29 -20 -42 -35 -39 -45 9 -23 -4 -18 -21 9 -14 21 -14 31 -4 65 7
22 16 38 20 35 5 -3 19 2 31 10 30 21 59 22 32 1 -19 -15 -19 -15 1 -8 11 3
25 9 30 13 21 15 85 19 97 6 8 -8 21 -10 38 -5 53 17 173 46 195 48 26 2 18
53 -12 78 -33 29 -34 29 -102 -4 -53 -26 -62 -27 -190 -25 -124 2 -135 0 -148
-18 -19 -27 -30 -25 -48 10 -16 32 -22 177 -6 151 8 -12 11 -8 16 15 14 63 55
104 104 104 12 0 24 6 27 14 3 8 20 18 37 22 37 8 107 70 107 96 0 10 5 18 11
18 7 0 9 12 4 36 -8 43 -35 104 -47 104 -20 0 -5 18 30 34 99 46 152 105 152
167 0 19 -8 82 -18 141 l-19 107 26 10 c27 11 199 9 289 -4 37 -6 52 -4 52 4
0 21 65 40 72 21z m-841 -98 c1 -10 4 -7 8 8 7 24 8 23 19 -15 6 -22 21 -57
33 -79 14 -27 17 -42 10 -49 -7 -7 -16 3 -30 34 -11 24 -20 39 -20 34 -1 -17
60 -209 70 -219 5 -6 9 -18 9 -29 0 -10 15 -35 34 -54 33 -35 64 -108 51 -121
-3 -3 -55 -7 -114 -7 -93 -1 -113 -4 -147 -24 -29 -18 -47 -21 -76 -17 -38 6
-94 -13 -110 -38 -4 -6 -11 1 -17 16 -15 40 1 82 104 283 51 99 107 208 124
243 30 59 50 72 52 34z m170 -24 c11 -21 11 -22 -4 -9 -10 7 -17 17 -17 22 0
15 9 10 21 -13z m45 -41 c4 -4 0 -7 -9 -7 -9 0 -18 4 -21 9 -7 10 20 9 30 -2z
m841 -709 c-3 -8 -6 -5 -6 6 -1 11 2 17 5 13 3 -3 4 -12 1 -19z m193 -168 c0
-5 -2 -10 -4 -10 -3 0 -8 5 -11 10 -3 6 -1 10 4 10 6 0 11 -4 11 -10z"/>
<path d="M2145 6969 c-4 -6 -5 -12 -2 -15 2 -3 7 2 10 11 7 17 1 20 -8 4z"/>
<path d="M2120 6911 c0 -5 9 -7 20 -4 11 3 20 7 20 9 0 2 -9 4 -20 4 -11 0
-20 -4 -20 -9z"/>
<path d="M1914 6544 c9 -8 16 -20 16 -25 0 -5 5 -9 10 -9 16 0 12 22 -7 36
-25 19 -38 17 -19 -2z"/>
<path d="M1846 6405 c4 -8 11 -15 16 -15 6 0 5 6 -2 15 -7 8 -14 15 -16 15 -2
0 -1 -7 2 -15z"/>
<path d="M2140 6280 c-9 -6 -10 -10 -3 -10 6 0 15 5 18 10 8 12 4 12 -15 0z"/>
<path d="M1865 6256 c35 -22 75 -34 75 -22 0 5 -60 33 -90 40 -18 5 -14 0 15
-18z"/>
<path d="M1988 6263 c7 -3 16 -2 19 1 4 3 -2 6 -13 5 -11 0 -14 -3 -6 -6z"/>
<path d="M2980 6092 c0 -5 7 -15 15 -22 8 -7 15 -9 15 -6 0 4 -7 14 -15 22 -8
9 -15 11 -15 6z"/>
<path d="M2566 5334 c1 -14 6 -29 10 -32 4 -4 4 1 1 10 -3 9 -1 18 5 20 6 2 8
10 4 16 -12 21 -23 13 -20 -14z"/>
<path d="M3220 4590 c0 -5 7 -10 15 -10 8 0 15 5 15 10 0 6 -7 10 -15 10 -8 0
-15 -4 -15 -10z"/>
<path d="M3220 4520 c0 -5 7 -7 15 -4 8 4 15 8 15 10 0 2 -7 4 -15 4 -8 0 -15
-4 -15 -10z"/>
<path d="M3090 4460 c0 -11 4 -20 9 -20 5 0 7 9 4 20 -3 11 -7 20 -9 20 -2 0
-4 -9 -4 -20z"/>
<path d="M2930 4314 c0 -6 7 -17 15 -24 8 -7 15 -19 15 -26 0 -8 7 -14 15 -14
20 0 19 2 -15 41 -16 19 -30 29 -30 23z"/>
<path d="M3075 4290 c-3 -5 -1 -10 4 -10 6 0 11 5 11 10 0 6 -2 10 -4 10 -3 0
-8 -4 -11 -10z"/>
<path d="M2535 4091 c-6 -11 9 -23 19 -14 9 9 7 23 -3 23 -6 0 -12 -4 -16 -9z"/>
<path d="M2321 5104 c0 -11 3 -14 6 -6 3 7 2 16 -1 19 -3 4 -6 -2 -5 -13z"/>
</g>
</svg>
